<svg width="59" height="65" viewBox="0 0 59 65" xmlns="http://www.w3.org/2000/svg">
    <g stroke-width="2" stroke="#270072" fill="none" fill-rule="evenodd" stroke-linecap="round">
        <path d="M29.247 58.033a6.436 6.436 0 0 1-12.76.667m4.423-9.551a6.434 6.434 0 0 1-2.355 8.79 6.44 6.44 0 0 1-2.062.76 6.435 6.435 0 0 1-3.909-12.149m15.875 8.073a6.435 6.435 0 0 1-6.936-4.137M18.54 27.832a6.438 6.438 0 0 1-1.52-11.888m23.667 23.285a6.447 6.447 0 0 1 4.105 4.609M29.276 43a6.439 6.439 0 0 0-5.52-5.981"/>
        <path d="M8.865 52.206a6.438 6.438 0 0 1-7.002-3.059 6.434 6.434 0 0 1 9.301-8.462"/>
        <path d="M13.773 20.433a6.399 6.399 0 0 0-2.852-4.489 6.414 6.414 0 0 0-8.878 1.872A6.392 6.392 0 0 0 1 21.15v24.083"/>
        <path d="M10.268 31.696a6.399 6.399 0 0 0-2.852-4.49A6.416 6.416 0 0 0 1 26.862m16.376 4.203a6.41 6.41 0 0 1 .937-2.348 6.397 6.397 0 0 1 3.53-2.641m-13.73 9.559a6.41 6.41 0 0 1-2.146 3.725m30.67-13.132a6.392 6.392 0 0 1 2.508-2.237M9.427 15.228a6.417 6.417 0 0 1 7.047-8.815"/>
        <path d="M18.743 12.334a6.418 6.418 0 0 1 7.628-10.293 6.415 6.415 0 0 1 2.91 5.608v50.625-.242m.033.001a6.435 6.435 0 0 0 11.992 2.771 6.423 6.423 0 0 0 .768-2.104"/>
        <path d="M37.651 49.149a6.434 6.434 0 0 0 2.355 8.79c.658.38 1.355.63 2.062.76a6.442 6.442 0 0 0 6.73-3.114 6.42 6.42 0 0 0 .823-3.917M51.348 38.8a6.435 6.435 0 1 0 6.252 6.082M37.48 19.238A6.437 6.437 0 0 0 43 25.22M29.285 50.519a6.439 6.439 0 0 1 5.52-5.982m-5.492-25.6a6.437 6.437 0 0 1 5.52-5.982"/>
        <path d="M44.79 20.433a6.396 6.396 0 0 1 2.851-4.489 6.414 6.414 0 0 1 8.878 1.872 6.392 6.392 0 0 1 1.041 3.334v24.083"/>
        <path d="M48.778 34.69a6.4 6.4 0 0 1 2.852-4.49 6.402 6.402 0 0 1 5.653-.67"/>
        <path d="M52.86 29.575a6.41 6.41 0 0 0-.938-2.348 6.399 6.399 0 0 0-3.53-2.641m.743-9.358a6.417 6.417 0 0 0-7.047-8.815M29.28 58.033v.242V7.65a6.416 6.416 0 1 1 12.754-1.23s-2.989.558-3.736 2.763"/>
    </g>
</svg>