<svg xmlns="http://www.w3.org/2000/svg" xmlns:xlink="http://www.w3.org/1999/xlink" width="147" height="57"><defs/><defs><path id="a" d="M.197.908h17.728v40.176H.197z"/><path id="c" d="M.775.805h4.56V11H.775z"/></defs><g fill="none" fill-rule="evenodd"><path fill="#005052" d="M86.173 12.682c-.257 2.242-.54 3.717-1.321 4.592-.722.929-1.946 1.257-3.748 1.257L82.402 6.45c1.804 0 2.949.493 3.484 1.42.547 1.04.543 2.57.287 4.812m3.733-9.73C88.12 1.039 85.652.438 83.082.438h-5.903l-4.305 40.177h5.903l1.7-16.071c2.57 0 5.228-.712 7.378-2.624 2.149-1.913 3.752-4.865 4.308-9.457.556-4.592-.471-7.598-2.257-9.511m14.268 5.739l-2.541 23.669a6.512 6.512 0 01-.392 1.476c-.296.82-.882 1.476-1.921 1.476-.493 0-.837-.165-1.084-.437-.501-.602-.703-1.477-.54-2.515l2.542-23.669a5.411 5.411 0 01.337-1.475c.308-.712.884-1.477 1.922-1.477.492 0 .892.164 1.14.438.446.601.64 1.421.537 2.514m5.34-4.318a6.203 6.203 0 00-2.01-3.007C106.488.546 105.064 0 103.096 0c-1.968 0-3.55.546-4.721 1.366-1.171.821-1.93 1.914-2.636 3.007-.736 1.312-1.188 2.733-1.404 4.318L91.794 32.36c-.15 1.694-.001 3.116.514 4.373.334 1.093.935 2.132 1.95 2.952 1.082.929 2.549 1.366 4.462 1.366 1.913 0 3.452-.437 4.666-1.366 1.172-.82 1.992-1.859 2.697-2.952.688-1.257 1.189-2.733 1.453-4.373l2.542-23.669c.095-1.694-.055-3.115-.563-4.318m12.551 7.871c-.302 2.842-1.19 4.264-2.144 5.084-.953.82-2.04.874-2.86.874l1.262-11.916c.82 0 1.913 0 2.71.82.797.82 1.335 2.296 1.032 5.138m-3.1-11.807h-5.903l-4.305 40.177h5.904l1.772-16.945h1.585l1.29 16.945h5.903l-1.717-19.46c2.408-1.53 3.833-5.139 4.288-9.129.78-7.652-1.766-11.588-8.817-11.588"/><g transform="translate(129 -.47)"><mask id="b" fill="#fff"><use xlink:href="#a"/></mask><path fill="#005052" d="M.87.908L.198 6.975h5.575l-3.63 34.109h5.904l3.629-34.11h5.576l.675-6.066z" mask="url(#b)"/></g><path fill="#005052" d="M14.134 39.685a8.739 8.739 0 002.662-2.952c.733-1.257 1.216-2.733 1.442-4.373l.582-5.521h-5.521l-.58 5.52c-.063.603-.17 1.095-.374 1.477-.36.82-.921 1.476-2.179 1.476-.492 0-.857-.164-1.1-.437-.486-.602-.732-1.367-.666-2.515l2.487-23.668c.112-.547.22-1.04.43-1.476.347-.711.92-1.476 1.957-1.476.602 0 1.078.164 1.322.437.531.656.726 1.422.61 2.515l-.58 5.52h5.52l.581-5.52c.111-1.586-.061-3.061-.53-4.32-.377-1.092-1.027-2.185-2.035-3.005C17.155.547 15.738 0 13.768 0c-1.967 0-3.556.546-4.736 1.366-1.178.82-2.004 1.913-2.611 3.006-.733 1.258-1.217 2.733-1.438 4.319L2.495 32.36c-.118 1.64.056 3.116.526 4.373.377 1.094.978 2.132 1.984 2.952 1.003.875 2.482 1.367 4.449 1.367 1.968 0 3.495-.492 4.68-1.367m19.208.929l.574-5.466H26.1L29.748.438h-5.904L19.62 40.614zM40.098.438l-4.223 40.176h5.904L46.001.438zm9.821 40.176l2.396-22.794h.329l.296 1.858 3.539 20.936h5.248L65.949.438h-5.411l-2.395 22.794h-.328l-.297-1.86L53.978.439h-5.247l-4.223 40.176zm20.433 0L74.575.438h-5.904L64.45 40.614z"/><path fill="#8CDB1F" d="M2.283 52.837l.756-3.148.067-.259h.082l.013.259.087 3.148H2.283zm.293-6.393L0 56.421h1.425l.477-2.036h1.412l.066 2.036h1.424l-.437-9.977H2.576zm43.754 4.493a19.5 19.5 0 01-.654-1.194c-.19-.38-.281-.733-.248-1.073.06-.584.223-.977.6-.991.233 0 .36.19.43.462.07.285.042.652.008.977l1.45-.136c.065-.556.049-1.221-.171-1.764-.231-.53-.691-.896-1.6-.882a1.968 1.968 0 00-1.547.76c-.374.447-.557 1.03-.608 1.574-.026.273-.04.543.029.8a5.05 5.05 0 00.557 1.549c.135.258.268.488.4.719.133.23.265.449.38.65.052.097.104.206.155.3.05.096.102.204.154.299.19.394.299.773.264 1.1-.082.638-.278 1.099-.712 1.099-.312 0-.444-.217-.518-.543-.074-.312-.051-.733 0-1.154l-1.451.136c-.07.76-.104 1.466.157 2.009.234.543.732.896 1.668.896.815 0 1.327-.285 1.698-.76.372-.476.524-1.086.604-1.751.064-.544-.057-1.06-.26-1.562a11.623 11.623 0 00-.784-1.52m3.373 1.235h1.357l.17-1.601h-1.356l.28-2.621h1.887l.168-1.506h-3.352l-1.07 9.977h3.353l.154-1.506h-1.887zm5.432-2.795c-.075.705-.296 1.058-.532 1.262-.236.203-.507.217-.71.217l.314-2.96c.203 0 .474 0 .672.204.197.204.331.57.256 1.277m-.77-2.933h-1.465l-1.069 9.977h1.465l.442-4.208h.393l.32 4.208h1.465l-.425-4.832c.598-.38.952-1.276 1.064-2.267.194-1.9-.44-2.878-2.19-2.878m5.971 0l-1.323 5.484-.105.42h-.081l-.003-.42-.142-5.484h-1.426l.45 9.977h1.468l2.588-9.977zm.899 9.976h1.466l1.068-9.977h-1.466z"/><g transform="translate(63 45.53)"><mask id="d" fill="#fff"><use xlink:href="#c"/></mask><path fill="#8CDB1F" d="M3.804 4.335h1.37l.154-1.372c.023-.42-.013-.774-.139-1.07a1.543 1.543 0 00-.498-.748c-.253-.204-.607-.34-1.095-.34-.489 0-.883.136-1.174.34-.29.204-.479.476-.654.748a2.963 2.963 0 00-.349 1.07L.79 8.841c-.037.42 0 .774.127 1.087.084.27.233.528.485.732.268.23.633.34 1.109.34.475 0 .857-.11 1.157-.34.292-.204.495-.462.67-.732.17-.314.296-.68.362-1.087l.14-1.37H3.47l-.143 1.37a1.626 1.626 0 01-.095.368c-.087.203-.234.364-.545.364a.341.341 0 01-.27-.107c-.125-.15-.175-.367-.161-.624l.63-5.879c.026-.149.068-.27.098-.365.09-.177.232-.367.49-.367.15 0 .264.04.324.109.137.149.188.365.16.623l-.153 1.372z" mask="url(#d)"/></g><path fill="#8CDB1F" d="M68.224 56.42h3.352l.155-1.505h-1.887l.295-2.743h1.357l.171-1.601H70.31l.281-2.62h1.887l.167-1.508h-3.353zm-28.936-4.316h-.082l-.073-.46-.877-5.2h-1.304l-1.05 9.976h1.345l.596-5.66h.08l.074.462.878 5.198h1.304l1.047-9.976h-1.343zm-3.408-4.16l.159-1.508h-3.353l-1.05 9.984h3.354l.16-1.508h-1.888l.288-2.743h1.357l.169-1.605h-1.358l.275-2.62zm-5.108-1.277c-.25-.204-.603-.339-1.092-.339-.487 0-.882.135-1.176.34a2.166 2.166 0 00-.648.747 2.9 2.9 0 00-.357 1.073l-.619 5.881c-.056.407-.04.775.05 1.087.08.272.215.53.44.733.22.218.533.34 1.007.34.476 0 .895-.244 1.203-.584l.126.475h.87l.522-4.972h-2.05l-.13 1.238h.583l-.19 1.805c-.016.15-.042.272-.093.367-.076.204-.216.367-.473.367a.35.35 0 01-.273-.109c-.12-.149-.168-.34-.138-.625l.631-6.003c.015-.136.041-.259.093-.367.073-.177.215-.367.472-.367.123 0 .226.04.288.11.12.162.153.352.124.624l-.16 1.535h1.466l.162-1.535a2.588 2.588 0 00-.132-1.073 1.655 1.655 0 00-.506-.748m-6.587 9.753h1.466l1.05-9.983h-1.466zm-1.959-4.32h-.08l-.075-.461-.878-5.203H19.89l-1.05 9.985h1.345l.596-5.665h.081l.074.462.878 5.203h1.304l1.05-9.985h-1.345zm-5.914 4.32h1.466l1.05-9.983h-1.466zm-1.697-9.984h-1.466l-1.05 9.984h3.409l.143-1.358h-1.942zm-3.267.231c-.25-.204-.603-.339-1.09-.339-.489 0-.884.135-1.177.34a2.159 2.159 0 00-.649.747 2.9 2.9 0 00-.357 1.073l-.619 5.881c-.029.407.014.775.131 1.087.094.272.242.53.493.733.25.218.617.34 1.105.34s.868-.122 1.162-.34a2.17 2.17 0 00.662-.733c.182-.312.302-.68.36-1.087l.143-1.372H10.14l-.144 1.372a1.015 1.015 0 01-.092.367c-.089.203-.229.367-.54.367a.353.353 0 01-.275-.109c-.119-.15-.18-.34-.164-.625l.617-5.88c.03-.137.055-.26.107-.368.087-.177.23-.367.486-.367.15 0 .268.04.328.11.132.162.18.352.152.624l-.145 1.372h1.372l.145-1.372a2.571 2.571 0 00-.132-1.073 1.647 1.647 0 00-.506-.748"/></g></svg>