<svg xmlns="http://www.w3.org/2000/svg" viewBox="0 105 1060 500"><defs><style>.cls-1{isolation:isolate;}.cls-2,.cls-5,.cls-8{fill:none;}.cls-2{stroke:#f5f5f5;}.cls-2,.cls-3,.cls-4,.cls-5,.cls-6,.cls-7,.cls-8,.cls-9{stroke-linecap:round;stroke-width:32px;}.cls-2,.cls-6,.cls-8,.cls-9{stroke-linejoin:round;}.cls-2,.cls-3,.cls-4,.cls-5,.cls-6,.cls-8,.cls-9{mix-blend-mode:multiply;}.cls-3,.cls-4,.cls-5{stroke:#7239ff;}.cls-3,.cls-4,.cls-5,.cls-7{stroke-miterlimit:10;}.cls-4{opacity:0.75;}.cls-6{stroke:#f8f8f8;}.cls-7{stroke:#d25eff;}.cls-8,.cls-9{stroke:#8bdb1f;}.cls-12,.cls-9{opacity:0.5;}.cls-10{fill:#7239ff;}.cls-11{fill:#f8f8f8;}.cls-12{fill:#8bdb1f;}</style></defs><title>Clinigen Assets</title><g class="cls-1"><g id="Artwork"><line class="cls-2" x1="780.6" y1="459.79" x2="336.6" y2="459.79"/><line class="cls-2" x1="780.6" y1="459.79" x2="669.6" y2="348.79"/><line class="cls-2" x1="665.24" y1="573.21" x2="780.6" y2="459.79"/><line class="cls-3" x1="1002.6" y1="385.79" x2="296.3" y2="385.8"/><line class="cls-4" x1="114.6" y1="385.79" x2="409.29" y2="385.8"/><line class="cls-5" x1="1002.6" y1="385.79" x2="891.6" y2="274.79"/><line class="cls-3" x1="891.6" y1="496.79" x2="1002.6" y2="385.79"/><line class="cls-6" x1="336.6" y1="459.79" x2="262.6" y2="459.79"/><line class="cls-7" x1="780.6" y1="385.79" x2="854.6" y2="385.79"/><line class="cls-8" x1="854.6" y1="237.79" x2="484.6" y2="237.79"/><line class="cls-8" x1="854.6" y1="237.79" x2="743.6" y2="126.79"/><line class="cls-8" x1="743.6" y1="348.79" x2="854.6" y2="237.79"/><line class="cls-9" x1="558.6" y1="237.79" x2="336.6" y2="237.79"/><circle class="cls-10" cx="40.6" cy="385.79" r="16"/><circle class="cls-11" cx="188.6" cy="459.79" r="16"/><circle class="cls-12" cx="262.6" cy="237.79" r="16"/></g></g></svg>