<svg xmlns="http://www.w3.org/2000/svg" width="32" height="32" viewBox="0 0 24 24">
    <path fill="white" fill-rule="evenodd" d="M10.547 15.478a4.888 4.888 0 0 0 3.48-1.46s0-.004.002-.004l.007-.004a5.141 5.141 0 0 0 1.483-3.623c0-2.81-2.23-5.094-4.972-5.094-2.742 0-4.972 2.283-4.972 5.094 0 2.807 2.23 5.091 4.972 5.091zm0-11.44c3.417 0 6.197 2.848 6.197 6.35 0 1.539-.54 2.953-1.433 4.053l4.227 4.33c.239.246.239.64 0 .886a.609.609 0 0 1-.433.184.608.608 0 0 1-.433-.184l-4.234-4.338a6.075 6.075 0 0 1-3.891 1.414c-3.417 0-6.197-2.849-6.197-6.346 0-3.5 2.78-6.35 6.197-6.35z">
    </path>
    <path fill="white" fill-rule="evenodd" d="M10.547 15.478a4.888 4.888 0 0 0 3.48-1.46s0-.004.002-.004l.007-.004a5.141 5.141 0 0 0 1.483-3.623c0-2.81-2.23-5.094-4.972-5.094-2.742 0-4.972 2.283-4.972 5.094 0 2.807 2.23 5.091 4.972 5.091zm0-11.44c3.417 0 6.197 2.848 6.197 6.35 0 1.539-.54 2.953-1.433 4.053l4.227 4.33c.239.246.239.64 0 .886a.609.609 0 0 1-.433.184.608.608 0 0 1-.433-.184l-4.234-4.338a6.075 6.075 0 0 1-3.891 1.414c-3.417 0-6.197-2.849-6.197-6.346 0-3.5 2.78-6.35 6.197-6.35z">
    </path>
</svg>