<svg xmlns="http://www.w3.org/2000/svg" width="223" height="40" viewBox="0 0 223 40">
    <g fill="none" fill-rule="evenodd">
        <path fill="#220072" fill-rule="nonzero" d="M121.1 39.6L125.4.8h4.5c5.3 0 8 1.1 9.2 4 1.2 3 .8 7.8 0 15.4-.8 7.6-1.6 12.4-3.4 15.3-1.9 3-4.8 4-10.1 4h-4.5v.1zm6.4-5.7c2 0 3.1-.2 3.9-2.1.4-.9.7-2.3 1-4.1.3-1.8.5-4.3.9-7.5.3-3.2.6-5.6.8-7.5.1-1.8.1-3.2-.1-4.1-.4-1.8-1.5-2.1-3.4-2.1l-3.1 27.4z"/>
        <path fill="#220072" d="M144 .9h5.7l-4.3 38.8h-5.7z"/>
        <path fill="#220072" fill-rule="nonzero" d="M158.3 39.6l-1.1-16.3h-1.5l-1.8 16.3h-5.7L152.5.8h5.7c6.8 0 9.3 3.8 8.5 11.2-.4 3.8-1.8 7.3-4.1 8.8l1.6 18.8h-5.9zM156.2 18c.8 0 1.9-.1 2.8-.8.9-.7 1.8-2.2 2.1-4.9.3-2.7-.2-4.2-1-5-.8-.7-1.8-.8-2.6-.8L156.2 18z"/>
        <path fill="#220072" d="M170.2.9h13l-.6 5.9h-7.3L174.2 17h5.3l-.7 6.2h-5.3l-1.2 10.7h7.3l-.6 5.9h-13zM197.4 26.4l-.6 5.3c-.2 1.6-.7 3-1.4 4.2-.6 1.1-1.4 2.1-2.6 2.8-1.1.8-2.6 1.3-4.5 1.3s-3.3-.5-4.3-1.3-1.5-1.8-1.9-2.8c-.4-1.2-.6-2.6-.5-4.2l2.5-22.8c.2-1.5.7-3 1.4-4.2.6-1.1 1.4-2.1 2.5-2.9 1.1-.8 2.7-1.3 4.6-1.3 1.9 0 3.3.5 4.2 1.3.9.8 1.6 1.8 1.9 2.9.4 1.2.6 2.6.5 4.2l-.6 5.3h-5.3l.6-5.3c.1-1.1-.1-1.8-.6-2.4-.2-.3-.7-.4-1.3-.4-1 0-1.6.7-1.9 1.4-.2.4-.3.9-.4 1.4l-2.5 22.8c-.1 1.1.2 1.8.6 2.4.2.3.6.4 1.1.4 1.2 0 1.8-.6 2.1-1.4.2-.4.3-.8.4-1.4l.6-5.3h5.4zM200.9 6.7l.6-5.9H218l-.6 5.9H212l-3.6 32.9h-5.7l3.6-32.9z"/>
        <path fill="#8BDB1F" d="M16.6 26.4l-.6 5.3c-.3 1.6-.8 3-1.4 4.2-.7 1.1-1.5 2.1-2.6 2.8-1.2.9-2.7 1.3-4.5 1.3-1.9 0-3.3-.4-4.3-1.3-1-.8-1.6-1.8-1.9-2.8-.5-1.2-.6-2.6-.5-4.2L3.3 8.9C3.5 7.3 4 6 4.7 4.7c.7-1.1 1.4-2.1 2.6-2.9C8.4 1 10 .5 11.9.5c1.9 0 3.3.5 4.3 1.3s1.6 1.8 1.9 2.9c.5 1.2.6 2.5.5 4.2l-.6 5.3h-5.4l.6-5.3c.1-1-.1-1.8-.6-2.4-.3-.3-.7-.5-1.3-.5-1 0-1.6.7-1.9 1.4-.1.4-.3.8-.4 1.4L6.5 31.7c-.1 1 .1 1.8.6 2.4.2.3.6.4 1.1.4 1.2 0 1.8-.6 2.1-1.4.1-.3.3-.8.4-1.4l.6-5.3h5.3zM21.9.9h5.7l-3.7 33.5h7.6l-.6 5.3H17.6zM37.5.9h5.7L39 39.6h-5.7zM50.4 19.5l-.3-1.8h-.3l-2.4 22h-5.2L46.5.9h5.1l3.3 20.2.3 1.8h.3L58 .9h5.2l-4.3 38.8h-5.1zM66.3.9H72l-4.3 38.8H62zM82.9 14.8l.7-6c.1-1.1-.1-1.8-.5-2.4-.3-.2-.6-.4-1.1-.4-1 0-1.6.7-1.9 1.4-.2.4-.3.9-.3 1.4l-2.6 23.3c-.2 1 0 1.8.5 2.4.2.3.6.4 1.1.4 1 0 1.6-.6 1.9-1.4.1-.3.3-.8.4-1.4l.8-7h-2.3l.5-4.8h8L86 39.6h-3.4l-.6-1.8c-1.2 1.3-2.8 2.3-4.7 2.3-1.9 0-3.1-.5-4-1.3-.8-.8-1.3-1.8-1.6-2.9-.4-1.2-.4-2.6-.2-4.2L74 8.9c.2-1.5.7-2.9 1.4-4.2.7-1.1 1.4-2.1 2.6-2.9C79.1 1 80.7.5 82.6.5c1.9 0 3.3.5 4.3 1.3s1.6 1.8 1.9 2.9c.5 1.2.6 2.5.5 4.2l-.7 6h-5.7v-.1zM93.4.9h13.1l-.7 5.9h-7.4L97.3 17h5.3l-.7 6.2h-5.3l-1.2 10.7h7.4l-.6 5.9H89.1zM112.7 19.4l-.3-1.8h-.3l-2.4 22h-5.2L108.8.8h5.1l3.3 20.2.3 1.8h.3l2.5-22h5.2l-4.3 38.8h-5.1z"/>
    </g>
</svg>
