<svg width="63" height="63" viewBox="0 0 63 63" xmlns="http://www.w3.org/2000/svg">
    <g stroke-width="2" stroke="#270072" fill="none" fill-rule="evenodd">
        <path d="M51.697 31.553h9.838M1.019 31.553h32.385M19.64 15.2a25.953 25.953 0 0 0 11.678 2.756c4.466 0 8.67-1.123 12.342-3.102M12.421 7.609A30.191 30.191 0 0 1 31.32 1c5.024 0 9.764 1.222 13.935 3.386" stroke-linecap="round"/>
        <path d="M57.72 16.405a30.174 30.174 0 0 1 3.916 14.913c0 16.744-13.573 30.317-30.317 30.317C14.574 61.635 1 48.062 1 31.318c0-4.593 1.021-8.948 2.85-12.85M31.319 1v60.636" stroke-linecap="round"/>
        <path d="M54.989 10.03a4.084 4.084 0 1 1-8.17 0 4.084 4.084 0 0 1 4.085-4.085 4.084 4.084 0 0 1 4.085 4.085zM15.8 15.635a4.085 4.085 0 1 1-8.171 0 4.085 4.085 0 0 1 8.17 0zM46.209 32.144a4.085 4.085 0 1 1-8.17 0 4.085 4.085 0 0 1 8.17 0z"/>
        <path d="M12.084 54.292c4.765-5.21 11.618-8.479 19.234-8.479 7.743 0 14.697 3.376 19.47 8.74" stroke-linecap="round"/>
        <path d="M11.746 8.137a7.894 7.894 0 0 1 7.894 7.894c0 5.673-7.894 14.066-7.894 14.066S3.851 21.704 3.851 16.03a7.895 7.895 0 0 1 7.895-7.894M50.936 2.53a7.896 7.896 0 0 1 7.895 7.895c0 5.673-7.895 14.066-7.895 14.066s-7.896-8.393-7.896-14.066a7.896 7.896 0 0 1 7.896-7.894M42.156 24.644a7.896 7.896 0 0 1 7.895 7.894c0 5.673-7.895 14.066-7.895 14.066s-7.896-8.393-7.896-14.066a7.896 7.896 0 0 1 7.896-7.894"/>
    </g>
</svg>