<svg width="66" height="49" xmlns="http://www.w3.org/2000/svg" xmlns:xlink="http://www.w3.org/1999/xlink"><defs><path id="a" d="M0 0h31.981v48.44H0z"/><path id="c" d="M0 0h31.981v48.44H0z"/></defs><g fill="none" fill-rule="evenodd"><g><mask id="b" fill="#fff"><use xlink:href="#a"/></mask><path d="M16.131 18.1a16.218 16.218 0 0 0-9.66 3.162 22.265 22.265 0 0 1 2.447-4.98c3.789-5.734 10.24-9.546 19.173-11.33a2.5 2.5 0 0 0-.979-4.904C16.794 2.11 9.256 6.662 4.708 13.583-1.972 23.748.381 35.21.485 35.693c.008.038.024.073.034.11 1.262 7.17 7.762 12.636 15.612 12.636 8.754 0 15.851-6.792 15.851-15.17 0-8.377-7.097-15.169-15.851-15.169" fill="#8CDB1F" mask="url(#b)"/></g><g transform="translate(34)"><mask id="d" fill="#fff"><use xlink:href="#c"/></mask><path d="M16.131 18.1a16.218 16.218 0 0 0-9.66 3.162 22.265 22.265 0 0 1 2.447-4.98c3.789-5.734 10.24-9.546 19.173-11.33a2.5 2.5 0 0 0-.979-4.904C16.794 2.11 9.256 6.662 4.708 13.583-1.972 23.748.381 35.21.485 35.693c.008.038.024.073.034.11 1.262 7.17 7.762 12.636 15.612 12.636 8.754 0 15.851-6.792 15.851-15.17 0-8.377-7.097-15.169-15.851-15.169" fill="#8CDB1F" mask="url(#d)"/></g></g></svg>