<svg width="64" height="64" viewBox="0 0 64 64" xmlns="http://www.w3.org/2000/svg">
    <g stroke-width="2" stroke="#270072" fill="none" fill-rule="evenodd" stroke-linecap="round">
        <path d="M16.654 17.24a20.571 20.571 0 0 1 14.881-6.34c11.395 0 20.634 9.239 20.634 20.635S42.93 52.169 31.535 52.169c-11.397 0-20.634-9.238-20.634-20.634 0-2.081.308-4.09.88-5.983"/>
        <path d="M24.51 24a10.882 10.882 0 0 1 2.07-1.531c1.458-.828 3.159-1.264 4.955-1.264 5.705 0 10.329 4.625 10.329 10.33s-4.624 10.33-10.33 10.33c-4.654 0-8.59-3.08-9.88-7.312"/>
        <path d="M31.535 31.771L9.512 10.384C15.068 4.6 22.882 1 31.535 1 48.4 1 62.07 14.67 62.07 31.535 62.07 48.4 48.4 62.07 31.535 62.07 14.671 62.07 1 48.4 1 31.535a30.401 30.401 0 0 1 3.58-14.36"/>
    </g>
</svg>